<svg xmlns="http://www.w3.org/2000/svg" shapeRendering="crispEdges" viewBox="0 0 69 69"><rect x="0" y="0" width="69" height="69" fill="#F5C8A8"/><rect x="26" y="14" width="18" height="1" fill="#244229"/><rect x="23" y="15" width="3" height="1" fill="#244229"/><rect x="26" y="15" width="18" height="1" fill="#62C875"/><rect x="44" y="15" width="1" height="1" fill="#244229"/><rect x="21" y="16" width="2" height="1" fill="#244229"/><rect x="23" y="16" width="22" height="1" fill="#62C875"/><rect x="45" y="16" width="1" height="1" fill="#244229"/><rect x="20" y="17" width="1" height="1" fill="#244229"/><rect x="21" y="17" width="25" height="1" fill="#62C875"/><rect x="46" y="17" width="1" height="1" fill="#244229"/><rect x="19" y="18" width="1" height="1" fill="#244229"/><rect x="20" y="18" width="27" height="1" fill="#62C875"/><rect x="47" y="18" width="1" height="1" fill="#244229"/><rect x="19" y="19" width="1" height="1" fill="#244229"/><rect x="20" y="19" width="28" height="1" fill="#62C875"/><rect x="48" y="19" width="2" height="1" fill="#244229"/><rect x="18" y="20" width="1" height="1" fill="#244229"/><rect x="19" y="20" width="31" height="1" fill="#62C875"/><rect x="50" y="20" width="3" height="1" fill="#244229"/><rect x="18" y="21" width="1" height="1" fill="#244229"/><rect x="19" y="21" width="34" height="1" fill="#62C875"/><rect x="53" y="21" width="1" height="1" fill="#244229"/><rect x="17" y="22" width="1" height="1" fill="#244229"/><rect x="18" y="22" width="36" height="1" fill="#62C875"/><rect x="54" y="22" width="1" height="1" fill="#244229"/><rect x="17" y="23" width="1" height="1" fill="#244229"/><rect x="18" y="23" width="37" height="1" fill="#62C875"/><rect x="55" y="23" width="1" height="1" fill="#244229"/><rect x="16" y="24" width="1" height="1" fill="#244229"/><rect x="17" y="24" width="38" height="1" fill="#62C875"/><rect x="55" y="24" width="1" height="1" fill="#244229"/><rect x="15" y="25" width="1" height="1" fill="#244229"/><rect x="16" y="25" width="40" height="1" fill="#62C875"/><rect x="56" y="25" width="1" height="1" fill="#244229"/><rect x="14" y="26" width="1" height="1" fill="#244229"/><rect x="15" y="26" width="42" height="1" fill="#62C875"/><rect x="57" y="26" width="1" height="1" fill="#244229"/><rect x="13" y="27" width="1" height="1" fill="#244229"/><rect x="14" y="27" width="42" height="1" fill="#62C875"/><rect x="56" y="27" width="1" height="1" fill="#244229"/><rect x="12" y="28" width="1" height="1" fill="#244229"/><rect x="13" y="28" width="43" height="1" fill="#62C875"/><rect x="56" y="28" width="1" height="1" fill="#244229"/><rect x="11" y="29" width="1" height="1" fill="#244229"/><rect x="12" y="29" width="45" height="1" fill="#62C875"/><rect x="57" y="29" width="1" height="1" fill="#244229"/><rect x="11" y="30" width="1" height="1" fill="#244229"/><rect x="12" y="30" width="45" height="1" fill="#62C875"/><rect x="57" y="30" width="1" height="1" fill="#244229"/><rect x="10" y="31" width="1" height="1" fill="#244229"/><rect x="11" y="31" width="46" height="1" fill="#62C875"/><rect x="57" y="31" width="1" height="1" fill="#244229"/><rect x="10" y="32" width="1" height="1" fill="#244229"/><rect x="11" y="32" width="46" height="1" fill="#62C875"/><rect x="57" y="32" width="1" height="1" fill="#244229"/><rect x="10" y="33" width="1" height="1" fill="#244229"/><rect x="11" y="33" width="45" height="1" fill="#62C875"/><rect x="56" y="33" width="1" height="1" fill="#244229"/><rect x="10" y="34" width="1" height="1" fill="#244229"/><rect x="11" y="34" width="45" height="1" fill="#62C875"/><rect x="56" y="34" width="1" height="1" fill="#244229"/><rect x="10" y="35" width="1" height="1" fill="#244229"/><rect x="11" y="35" width="45" height="1" fill="#62C875"/><rect x="56" y="35" width="1" height="1" fill="#244229"/><rect x="9" y="36" width="1" height="1" fill="#244229"/><rect x="10" y="36" width="46" height="1" fill="#62C875"/><rect x="56" y="36" width="1" height="1" fill="#244229"/><rect x="9" y="37" width="1" height="1" fill="#244229"/><rect x="10" y="37" width="22" height="1" fill="#62C875"/><rect x="32" y="37" width="3" height="1" fill="#244229"/><rect x="35" y="37" width="4" height="1" fill="#62C875"/><rect x="39" y="37" width="3" height="1" fill="#244229"/><rect x="42" y="37" width="15" height="1" fill="#62C875"/><rect x="57" y="37" width="1" height="1" fill="#244229"/><rect x="9" y="38" width="1" height="1" fill="#244229"/><rect x="10" y="38" width="22" height="1" fill="#62C875"/><rect x="32" y="38" width="3" height="1" fill="#244229"/><rect x="35" y="38" width="4" height="1" fill="#62C875"/><rect x="39" y="38" width="3" height="1" fill="#244229"/><rect x="42" y="38" width="16" height="1" fill="#62C875"/><rect x="58" y="38" width="1" height="1" fill="#244229"/><rect x="9" y="39" width="1" height="1" fill="#244229"/><rect x="10" y="39" width="22" height="1" fill="#62C875"/><rect x="32" y="39" width="3" height="1" fill="#244229"/><rect x="35" y="39" width="4" height="1" fill="#62C875"/><rect x="39" y="39" width="3" height="1" fill="#244229"/><rect x="42" y="39" width="16" height="1" fill="#62C875"/><rect x="58" y="39" width="1" height="1" fill="#244229"/><rect x="9" y="40" width="1" height="1" fill="#244229"/><rect x="10" y="40" width="48" height="1" fill="#62C875"/><rect x="58" y="40" width="1" height="1" fill="#244229"/><rect x="9" y="41" width="1" height="1" fill="#244229"/><rect x="10" y="41" width="49" height="1" fill="#62C875"/><rect x="59" y="41" width="1" height="1" fill="#244229"/><rect x="9" y="42" width="1" height="1" fill="#244229"/><rect x="10" y="42" width="49" height="1" fill="#62C875"/><rect x="59" y="42" width="1" height="1" fill="#244229"/><rect x="10" y="43" width="1" height="1" fill="#244229"/><rect x="11" y="43" width="48" height="1" fill="#62C875"/><rect x="59" y="43" width="1" height="1" fill="#244229"/><rect x="10" y="44" width="1" height="1" fill="#244229"/><rect x="11" y="44" width="48" height="1" fill="#62C875"/><rect x="59" y="44" width="1" height="1" fill="#244229"/><rect x="10" y="45" width="1" height="1" fill="#244229"/><rect x="11" y="45" width="47" height="1" fill="#62C875"/><rect x="58" y="45" width="1" height="1" fill="#244229"/><rect x="10" y="46" width="1" height="1" fill="#244229"/><rect x="11" y="46" width="46" height="1" fill="#62C875"/><rect x="57" y="46" width="1" height="1" fill="#244229"/><rect x="11" y="47" width="1" height="1" fill="#244229"/><rect x="12" y="47" width="45" height="1" fill="#62C875"/><rect x="57" y="47" width="1" height="1" fill="#244229"/><rect x="11" y="48" width="1" height="1" fill="#244229"/><rect x="12" y="48" width="45" height="1" fill="#62C875"/><rect x="57" y="48" width="1" height="1" fill="#244229"/><rect x="12" y="49" width="1" height="1" fill="#244229"/><rect x="13" y="49" width="44" height="1" fill="#62C875"/><rect x="57" y="49" width="1" height="1" fill="#244229"/><rect x="12" y="50" width="1" height="1" fill="#244229"/><rect x="13" y="50" width="43" height="1" fill="#62C875"/><rect x="56" y="50" width="1" height="1" fill="#244229"/><rect x="13" y="51" width="1" height="1" fill="#244229"/><rect x="14" y="51" width="42" height="1" fill="#62C875"/><rect x="56" y="51" width="1" height="1" fill="#244229"/><rect x="14" y="52" width="1" height="1" fill="#244229"/><rect x="15" y="52" width="40" height="1" fill="#62C875"/><rect x="55" y="52" width="1" height="1" fill="#244229"/><rect x="15" y="53" width="1" height="1" fill="#244229"/><rect x="16" y="53" width="38" height="1" fill="#62C875"/><rect x="54" y="53" width="1" height="1" fill="#244229"/><rect x="16" y="54" width="1" height="1" fill="#244229"/><rect x="17" y="54" width="36" height="1" fill="#62C875"/><rect x="53" y="54" width="1" height="1" fill="#244229"/><rect x="17" y="55" width="1" height="1" fill="#244229"/><rect x="18" y="55" width="34" height="1" fill="#62C875"/><rect x="52" y="55" width="1" height="1" fill="#244229"/><rect x="18" y="56" width="1" height="1" fill="#244229"/><rect x="19" y="56" width="32" height="1" fill="#62C875"/><rect x="51" y="56" width="1" height="1" fill="#244229"/><rect x="19" y="57" width="1" height="1" fill="#244229"/><rect x="20" y="57" width="28" height="1" fill="#62C875"/><rect x="48" y="57" width="3" height="1" fill="#244229"/><rect x="20" y="58" width="3" height="1" fill="#244229"/><rect x="23" y="58" width="23" height="1" fill="#62C875"/><rect x="46" y="58" width="2" height="1" fill="#244229"/><rect x="23" y="59" width="5" height="1" fill="#244229"/><rect x="28" y="59" width="13" height="1" fill="#62C875"/><rect x="41" y="59" width="5" height="1" fill="#244229"/><rect x="28" y="60" width="13" height="1" fill="#244229"/><rect x="22" y="37" width="4" height="1" fill="#C8626D"/><rect x="52" y="37" width="4" height="1" fill="#C8626D"/><rect x="22" y="38" width="8" height="1" fill="#C8626D"/><rect x="47" y="38" width="9" height="1" fill="#C8626D"/><rect x="22" y="39" width="1" height="1" fill="#C8626D"/><rect x="23" y="39" width="2" height="1" fill="#432122"/><rect x="25" y="39" width="5" height="1" fill="#C8626D"/><rect x="47" y="39" width="6" height="1" fill="#C8626D"/><rect x="53" y="39" width="1" height="1" fill="#432122"/><rect x="54" y="39" width="2" height="1" fill="#C8626D"/><rect x="18" y="40" width="1" height="1" fill="#1A2E1E"/><rect x="22" y="40" width="2" height="1" fill="#C8626D"/><rect x="24" y="40" width="3" height="1" fill="#432122"/><rect x="27" y="40" width="25" height="1" fill="#C8626D"/><rect x="52" y="40" width="2" height="1" fill="#432122"/><rect x="54" y="40" width="2" height="1" fill="#C8626D"/><rect x="17" y="41" width="1" height="1" fill="#1A2E1E"/><rect x="22" y="41" width="4" height="1" fill="#C8626D"/><rect x="26" y="41" width="3" height="1" fill="#432122"/><rect x="29" y="41" width="20" height="1" fill="#C8626D"/><rect x="49" y="41" width="4" height="1" fill="#432122"/><rect x="53" y="41" width="3" height="1" fill="#C8626D"/><rect x="17" y="42" width="1" height="1" fill="#1A2E1E"/><rect x="22" y="42" width="6" height="1" fill="#C8626D"/><rect x="28" y="42" width="4" height="1" fill="#432122"/><rect x="32" y="42" width="14" height="1" fill="#C8626D"/><rect x="46" y="42" width="4" height="1" fill="#432122"/><rect x="50" y="42" width="6" height="1" fill="#C8626D"/><rect x="17" y="43" width="1" height="1" fill="#1A2E1E"/><rect x="24" y="43" width="7" height="1" fill="#C8626D"/><rect x="31" y="43" width="16" height="1" fill="#432122"/><rect x="47" y="43" width="8" height="1" fill="#C8626D"/><rect x="18" y="44" width="1" height="1" fill="#1A2E1E"/><rect x="26" y="44" width="26" height="1" fill="#C8626D"/><rect x="26" y="45" width="26" height="1" fill="#C8626D"/><rect x="29" y="46" width="21" height="1" fill="#C8626D"/><rect x="34" y="23" width="1" height="1" fill="#1A2E1E"/><rect x="50" y="23" width="1" height="1" fill="#1A2E1E"/><rect x="35" y="24" width="1" height="1" fill="#1A2E1E"/><rect x="51" y="24" width="1" height="1" fill="#1A2E1E"/><rect x="36" y="25" width="1" height="1" fill="#1A2E1E"/><rect x="52" y="25" width="1" height="1" fill="#1A2E1E"/><rect x="37" y="26" width="1" height="1" fill="#1A2E1E"/><rect x="53" y="26" width="1" height="1" fill="#1A2E1E"/><rect x="30" y="27" width="8" height="1" fill="#1A2E1E"/><rect x="46" y="27" width="8" height="1" fill="#1A2E1E"/><rect x="25" y="28" width="5" height="1" fill="#1A2E1E"/><rect x="30" y="28" width="5" height="1" fill="#3F575B"/><rect x="35" y="28" width="2" height="1" fill="#FEFEFE"/><rect x="37" y="28" width="1" height="1" fill="#1A2E1E"/><rect x="42" y="28" width="4" height="1" fill="#1A2E1E"/><rect x="46" y="28" width="5" height="1" fill="#3F575B"/><rect x="51" y="28" width="2" height="1" fill="#FEFEFE"/><rect x="53" y="28" width="1" height="1" fill="#1A2E1E"/><rect x="22" y="29" width="4" height="1" fill="#1A2E1E"/><rect x="26" y="29" width="4" height="1" fill="#FEFEFE"/><rect x="30" y="29" width="5" height="1" fill="#3F575B"/><rect x="35" y="29" width="2" height="1" fill="#FEFEFE"/><rect x="37" y="29" width="6" height="1" fill="#1A2E1E"/><rect x="43" y="29" width="3" height="1" fill="#FEFEFE"/><rect x="46" y="29" width="5" height="1" fill="#3F575B"/><rect x="51" y="29" width="2" height="1" fill="#FEFEFE"/><rect x="53" y="29" width="1" height="1" fill="#1A2E1E"/><rect x="23" y="30" width="7" height="1" fill="#FEFEFE"/><rect x="30" y="30" width="8" height="1" fill="#1A2E1E"/><rect x="39" y="30" width="7" height="1" fill="#FEFEFE"/><rect x="46" y="30" width="8" height="1" fill="#1A2E1E"/><rect x="23" y="31" width="4" height="1" fill="#FEFEFE"/><rect x="27" y="31" width="3" height="1" fill="#1A2E1E"/><rect x="37" y="31" width="1" height="1" fill="#1A2E1E"/><rect x="39" y="31" width="4" height="1" fill="#FEFEFE"/><rect x="43" y="31" width="3" height="1" fill="#1A2E1E"/><rect x="53" y="31" width="1" height="1" fill="#1A2E1E"/><rect x="23" y="32" width="5" height="1" fill="#1A2E1E"/><rect x="36" y="32" width="1" height="1" fill="#1A2E1E"/><rect x="39" y="32" width="5" height="1" fill="#1A2E1E"/><rect x="52" y="32" width="1" height="1" fill="#1A2E1E"/><rect x="23" y="33" width="1" height="1" fill="#1A2E1E"/><rect x="35" y="33" width="1" height="1" fill="#1A2E1E"/><rect x="39" y="33" width="1" height="1" fill="#1A2E1E"/><rect x="51" y="33" width="1" height="1" fill="#1A2E1E"/><rect x="24" y="34" width="1" height="1" fill="#1A2E1E"/><rect x="34" y="34" width="1" height="1" fill="#1A2E1E"/><rect x="40" y="34" width="1" height="1" fill="#1A2E1E"/><rect x="50" y="34" width="1" height="1" fill="#1A2E1E"/><rect x="28" y="7" width="14" height="1" fill="#D0483E"/><rect x="25" y="8" width="19" height="1" fill="#D0483E"/><rect x="24" y="9" width="21" height="1" fill="#D0483E"/><rect x="23" y="10" width="23" height="1" fill="#D0483E"/><rect x="22" y="11" width="10" height="1" fill="#D0483E"/><rect x="32" y="11" width="3" height="1" fill="#E8B93E"/><rect x="35" y="11" width="1" height="1" fill="#D0483E"/><rect x="36" y="11" width="3" height="1" fill="#E8B93E"/><rect x="39" y="11" width="8" height="1" fill="#D0483E"/><rect x="21" y="12" width="10" height="1" fill="#D0483E"/><rect x="31" y="12" width="1" height="1" fill="#E8B93E"/><rect x="32" y="12" width="3" height="1" fill="#D0483E"/><rect x="35" y="12" width="1" height="1" fill="#E8B93E"/><rect x="36" y="12" width="3" height="1" fill="#D0483E"/><rect x="39" y="12" width="1" height="1" fill="#E8B93E"/><rect x="40" y="12" width="8" height="1" fill="#D0483E"/><rect x="20" y="13" width="11" height="1" fill="#D0483E"/><rect x="31" y="13" width="1" height="1" fill="#E8B93E"/><rect x="32" y="13" width="3" height="1" fill="#D0483E"/><rect x="35" y="13" width="1" height="1" fill="#E8B93E"/><rect x="36" y="13" width="3" height="1" fill="#D0483E"/><rect x="39" y="13" width="1" height="1" fill="#E8B93E"/><rect x="40" y="13" width="9" height="1" fill="#D0483E"/><rect x="19" y="14" width="12" height="1" fill="#D0483E"/><rect x="31" y="14" width="1" height="1" fill="#E8B93E"/><rect x="32" y="14" width="3" height="1" fill="#D0483E"/><rect x="35" y="14" width="1" height="1" fill="#E8B93E"/><rect x="36" y="14" width="3" height="1" fill="#D0483E"/><rect x="39" y="14" width="1" height="1" fill="#E8B93E"/><rect x="40" y="14" width="10" height="1" fill="#D0483E"/><rect x="18" y="15" width="13" height="1" fill="#D0483E"/><rect x="31" y="15" width="1" height="1" fill="#E8B93E"/><rect x="32" y="15" width="3" height="1" fill="#D0483E"/><rect x="35" y="15" width="1" height="1" fill="#E8B93E"/><rect x="36" y="15" width="3" height="1" fill="#D0483E"/><rect x="39" y="15" width="1" height="1" fill="#E8B93E"/><rect x="40" y="15" width="11" height="1" fill="#D0483E"/><rect x="17" y="16" width="14" height="1" fill="#D0483E"/><rect x="31" y="16" width="1" height="1" fill="#E8B93E"/><rect x="32" y="16" width="3" height="1" fill="#D0483E"/><rect x="35" y="16" width="1" height="1" fill="#E8B93E"/><rect x="36" y="16" width="3" height="1" fill="#D0483E"/><rect x="39" y="16" width="1" height="1" fill="#E8B93E"/><rect x="40" y="16" width="12" height="1" fill="#D0483E"/><rect x="17" y="17" width="14" height="1" fill="#D0483E"/><rect x="31" y="17" width="1" height="1" fill="#E8B93E"/><rect x="32" y="17" width="7" height="1" fill="#D0483E"/><rect x="39" y="17" width="1" height="1" fill="#E8B93E"/><rect x="40" y="17" width="12" height="1" fill="#D0483E"/><rect x="17" y="18" width="35" height="1" fill="#D0483E"/><rect x="17" y="19" width="35" height="1" fill="#D0483E"/><rect x="52" y="19" width="13" height="1" fill="#432122"/><rect x="17" y="20" width="48" height="1" fill="#432122"/><rect x="17" y="21" width="48" height="1" fill="#432122"/><rect x="66" y="26" width="2" height="1" fill="#FEFEFE"/><rect x="68" y="27" width="1" height="1" fill="#FEFEFE"/><rect x="68" y="28" width="1" height="1" fill="#FEFEFE"/><rect x="65" y="29" width="3" height="1" fill="#FEFEFE"/><rect x="63" y="30" width="2" height="1" fill="#FEFEFE"/><rect x="63" y="31" width="2" height="1" fill="#FEFEFE"/><rect x="65" y="32" width="1" height="1" fill="#FEFEFE"/><rect x="65" y="33" width="1" height="1" fill="#FEFEFE"/><rect x="68" y="33" width="1" height="1" fill="#FEFEFE"/><rect x="65" y="34" width="1" height="1" fill="#FEFEFE"/><rect x="68" y="34" width="1" height="1" fill="#FEFEFE"/><rect x="66" y="35" width="2" height="1" fill="#FEFEFE"/><rect x="65" y="36" width="1" height="1" fill="#FEFEFE"/><rect x="66" y="37" width="2" height="1" fill="#FEFEFE"/><rect x="66" y="38" width="2" height="1" fill="#FEFEFE"/><rect x="65" y="39" width="1" height="1" fill="#FEFEFE"/><rect x="63" y="40" width="2" height="1" fill="#FEFEFE"/><rect x="63" y="41" width="2" height="1" fill="#FEFEFE"/><rect x="63" y="42" width="1" height="1" fill="#FEFEFE"/><rect x="44" y="43" width="4" height="1" fill="#8C6A1D"/><rect x="48" y="43" width="12" height="1" fill="#FEFEFE"/><rect x="60" y="43" width="3" height="1" fill="#D0483E"/><rect x="44" y="44" width="4" height="1" fill="#8C6A1D"/><rect x="48" y="44" width="12" height="1" fill="#FEFEFE"/><rect x="60" y="44" width="3" height="1" fill="#D0483E"/><rect x="44" y="45" width="4" height="1" fill="#8C6A1D"/><rect x="48" y="45" width="12" height="1" fill="#FEFEFE"/><rect x="60" y="45" width="3" height="1" fill="#D0483E"/></svg>